<?xml version="1.0" encoding="UTF-8" standalone="no"?>
<!-- Created with Inkscape (http://www.inkscape.org/) -->

<svg
   width="38.708424mm"
   height="36.395687mm"
   viewBox="0 0 38.708424 36.395687"
   version="1.1"
   id="svg1"
   xml:space="preserve"
   xmlns:inkscape="http://www.inkscape.org/namespaces/inkscape"
   xmlns:sodipodi="http://sodipodi.sourceforge.net/DTD/sodipodi-0.dtd"
   xmlns="http://www.w3.org/2000/svg"
   xmlns:svg="http://www.w3.org/2000/svg"><sodipodi:namedview
     id="namedview1"
     pagecolor="#ffffff"
     bordercolor="#000000"
     borderopacity="0.25"
     inkscape:showpageshadow="2"
     inkscape:pageopacity="0.0"
     inkscape:pagecheckerboard="0"
     inkscape:deskcolor="#d1d1d1"
     inkscape:document-units="mm" /><defs
     id="defs1" /><g
     inkscape:label="Layer 1"
     inkscape:groupmode="layer"
     id="layer1"
     transform="translate(-151.93821,-124.20311)"><g
       style="fill:none"
       id="g1"
       transform="matrix(0.8988456,0,0,0.8988456,154.69271,124.64497)"
       inkscape:export-filename="g1.svg"
       inkscape:export-xdpi="96"
       inkscape:export-ydpi="96"><path
         d="m 16.986584,39.610491 c 11.073885,0 20.051071,-8.977186 20.051071,-20.05107 0,-11.0738852 -8.977186,-20.0510132 -20.051071,-20.0510132 -11.0739078,0 -20.0510704,8.977128 -20.0510704,20.0510132 0,11.073884 8.9771626,20.05107 20.0510704,20.05107 z"
         fill="#fbe4ae"
         id="path1"
         style="stroke-width:1.15559" /><path
         d="M 37.5137,19.6758 H 26.9731 V 39.892 h 10.5406 z"
         fill="#3a6acd"
         id="path2" /><path
         d="M 26.973,39.9463 H 2.91895 V 20.3787 l 12.05405,-7.1892 12,7.1892 z"
         fill="#486aaf"
         id="path3" /><path
         d="M 0.756714,21.6757 14.9189,13.1892 29.1351,21.6757 V 19.8379 L 14.9189,10.9189 0.864812,19.6757 Z"
         fill="#8ba4d2"
         id="path4" /><path
         d="m 16.865,19.6759 h -3.7838 c -0.7567,0 -1.3513,-0.5946 -1.3513,-1.3514 0,-0.7568 0.5946,-1.3514 1.3513,-1.3514 h 3.7838 c 0.7568,0 1.3514,0.5946 1.3514,1.3514 0,0.7568 -0.6487,1.3514 -1.3514,1.3514 z"
         fill="#8ba4d2"
         id="path5"
         style="fill:#fab241;fill-opacity:1" /><path
         d="M 24.0541,21.6758 H 5.83789 V 39.892 H 24.0541 Z"
         fill="#8ba4d2"
         id="path6" /><path
         d="M 24.0541,23.6216 H 5.83789 v 0.5946 H 24.0541 Z"
         fill="#5f7fbc"
         id="path7" /><path
         d="M 24.0541,26.4326 H 5.83789 v 0.5946 H 24.0541 Z"
         fill="#5f7fbc"
         id="path8" /><path
         d="M 24.0541,29.1895 H 5.83789 V 29.784 H 24.0541 Z"
         fill="#5f7fbc"
         id="path9" /><path
         d="M 24.0541,29.1895 H 5.83789 V 39.9462 H 24.0541 Z"
         fill="#2951a3"
         id="path10" /><path
         d="M 8.37835,33.1895 H 1.62158 v 6.7567 h 6.75677 z"
         fill="#e89a26"
         id="path11" /><path
         d="M 7.72979,33.1895 H 0.973022 v 6.7567 H 7.72979 Z"
         fill="#f8d179"
         id="path12" /><path
         d="M 4.37834,33.1895 H 1.89185 v 2.6486 h 2.48649 z"
         fill="#fbe4ae"
         id="path13" /><path
         d="M 13.2433,26.4326 H 6.48657 v 6.7568 h 6.75673 z"
         fill="#e89a26"
         id="path14" /><path
         d="M 10.6487,26.4326 H 3.89197 v 6.7568 h 6.75673 z"
         fill="#f8d179"
         id="path15" /><path
         d="M 7.24345,26.4326 H 4.75696 v 2.6487 h 2.48649 z"
         fill="#fbe4ae"
         id="path16" /><path
         d="m 17.7299,33.1895 h -6.7568 v 6.7567 h 6.7568 z"
         fill="#e89a26"
         id="path17" /><path
         d="M 15.0812,33.1895 H 8.32446 v 6.7567 h 6.75674 z"
         fill="#f8d179"
         id="path18" /><path
         d="M 11.6758,33.1895 H 9.18933 v 2.6486 h 2.48647 z"
         fill="#fbe4ae"
         id="path19" /><path
         d="m 14.9189,10.9189 h 9.892 l 15.1892,9.0271 h -10.919 z"
         fill="#2951a3"
         id="path20"
         style="fill:#2951a3;fill-opacity:1" /><path
         d="M 40.0001,19.9458 H 29.1353 v 1.7297 h 10.8648 z"
         fill="#8ba4d2"
         id="path25" /><g
         id="g32"><path
           d="m 36.5407,39.946 c 0,0 2.4865,-3.0811 1.5135,-4.2703 -0.973,-1.1892 -1.946,0 -1.946,0 0,0 0.919,-5.946 -0.8108,-5.1892 -1.7297,0.7567 -1.2432,4.7027 -1.2432,4.7027 0,0 -1.0811,-3.4054 -1.946,-1.7297 -0.8108,1.6216 0.7568,3.5675 0.7568,3.5675 0,0 -2.6487,-2.1081 -2,0 0.6486,2.1081 2.2162,2.973 2.2162,2.973 h 3.4595 z"
           fill="#2e6c7d"
           id="path21" /><path
           d="m 34.5949,36.6484 h -0.1622 v 3.2973 h 0.1622 z"
           fill="#2e6c7d"
           id="path22" /><path
           d="m 35.4731,36.8637 -1.0148,0.9722 0.1121,0.1171 1.0149,-0.9722 z"
           fill="#2e6c7d"
           id="path23" /><path
           d="m 33.5874,37.5064 -0.1122,0.1171 1.0149,0.9723 0.1121,-0.1171 z"
           fill="#2e6c7d"
           id="path24" /><path
           d="m 36.0542,39.946 c 0,0 2.4865,-3.0811 1.5135,-4.2703 -0.973,-1.1892 -1.9459,0 -1.9459,0 0,0 0.9189,-5.946 -0.8108,-5.1892 -1.7298,0.7567 -1.2433,4.7027 -1.2433,4.7027 0,0 -1.0811,-3.4054 -1.9459,-1.7297 -0.8649,1.6756 0.7567,3.5675 0.7567,3.5675 0,0 -2.6486,-2.1081 -2,0 0.6487,2.1081 2.2163,2.973 2.2163,2.973 h 3.4594 z"
           fill="#86c7c3"
           id="path26" /><path
           d="m 34.1083,36.6484 h -0.1621 v 3.2973 h 0.1621 z"
           fill="#2951a3"
           id="path27" /><path
           d="m 34.9804,36.8485 -1.0148,0.9723 0.1122,0.1171 1.0148,-0.9723 z"
           fill="#2951a3"
           id="path28" /><path
           d="m 33.0941,37.4903 -0.1122,0.1171 1.0149,0.9723 0.1122,-0.1171 z"
           fill="#2951a3"
           id="path29" /></g><path
         d="m 36.3244,23.1895 h -4.1081 v 1.081 h 4.1081 z"
         fill="#486aaf"
         id="path30" /><path
         d="M 35.0811,24.7568 H 30.973 v 1.0811 h 4.1081 z"
         fill="#486aaf"
         id="path31" /></g></g></svg>
