<svg width="41" height="40" viewBox="0 0 41 40" fill="none" xmlns="http://www.w3.org/2000/svg">
<path d="M20.5 36.8965C30.6887 36.8965 38.9483 28.637 38.9483 18.4483C38.9483 8.25957 30.6887 0 20.5 0C10.3113 0 2.05176 8.25957 2.05176 18.4483C2.05176 28.637 10.3113 36.8965 20.5 36.8965Z" fill="#C4D4EC"/>
<path d="M27.339 7.1264H25.0977V19.3103C27.6264 19.3103 29.6379 17.2988 29.6379 14.7701C29.2931 12.8161 30.7873 7.06893 27.339 7.1264Z" fill="#2951A3"/>
<path d="M25.8447 20.6895H19.408V26.1492H25.8447V20.6895Z" fill="#F8D179"/>
<path d="M9.63801 39.9427C10.1552 36.3221 7.79893 27.1841 12.569 25.345C15.73 24.0807 19.4656 22.5864 19.4656 22.5864L22.7415 24.9427V40.0002H9.63801V39.9427Z" fill="#3A6ACD"/>
<path d="M35.7873 39.9427C35.27 36.3221 37.6264 27.1841 32.8562 25.345C29.6953 24.0807 25.9597 22.5864 25.9597 22.5864L22.6838 24.9427V40.0002H35.7873V39.9427Z" fill="#3A6ACD"/>
<path d="M22.684 24.8851C21.9369 24.8851 21.4771 24.7702 21.0173 25.4598C20.2702 26.092 22.4541 27.5288 22.684 27.9886" fill="#FBE4AE"/>
<path d="M22.6838 24.8851C23.431 24.8851 23.8907 24.7702 24.3505 25.4598C25.0976 26.092 22.9137 27.5288 22.6838 27.9886" fill="#FBE4AE"/>
<path d="M22.6838 27.0688H23.316L24.4655 37.4711L22.6838 39.3677V27.0688Z" fill="#F8D179"/>
<path d="M22.6839 27.0688H22.0517L20.9597 37.4711L22.6839 39.3677V27.0688Z" fill="#F8D179"/>
<path d="M14.8678 9.08057H25.9023V21.2645H20.4425C13.6609 20.9771 14.8678 13.7357 14.8678 9.08057Z" fill="#F8D179"/>
<path d="M28.3162 14.4826C28.3737 17.0688 24.2932 17.0688 24.3507 14.4826C24.3507 11.8964 28.3737 11.8964 28.3162 14.4826Z" fill="#F8D179"/>
<path d="M28.7183 9.31047H15.6148C11.6493 9.19552 11.9367 5.17254 12.0516 2.35645H25.4424C29.293 2.41392 28.7183 6.66679 28.7183 9.31047Z" fill="#3A6ACD"/>
<path d="M26.1897 29.5977H30.615V33.5057L28.3736 34.9425L26.1897 33.5632V29.5977Z" fill="#2951A3"/>
<path d="M10.6072 31.3242L9.71313 30.4302L7.76251 32.3808L8.65655 33.2748L10.6072 31.3242Z" fill="#264A93"/>
<path d="M3.7185 37.3564C3.20126 36.8392 3.20126 36.0921 3.7185 35.5748L6.59206 32.7013C7.05183 32.2415 7.85643 32.2415 8.37367 32.7013C8.83344 33.161 8.83344 33.9656 8.37367 34.4829L5.50011 37.3564C4.98287 37.8162 4.17827 37.8162 3.7185 37.3564Z" fill="#3A6ACD"/>
<path d="M17.4679 30.8356C19.3757 28.9279 19.412 25.8713 17.5492 24.0084C15.6864 22.1456 12.6298 22.182 10.722 24.0897C8.81433 25.9974 8.77794 29.0541 10.6408 30.9169C12.5036 32.7797 15.5602 32.7433 17.4679 30.8356Z" fill="#CA7439"/>
<path d="M16.8932 30.8356C18.8009 28.9279 18.8373 25.8713 16.9745 24.0084C15.1117 22.1456 12.0551 22.182 10.1473 24.0897C8.23962 25.9974 8.20323 29.0541 10.0661 30.9169C11.9289 32.7797 14.9855 32.7433 16.8932 30.8356Z" fill="#F8D179"/>
<path d="M16.2024 30.1447C17.751 28.596 17.8056 26.1398 16.3243 24.6585C14.843 23.1773 12.3868 23.2318 10.8382 24.7805C9.28958 26.3291 9.235 28.7853 10.7163 30.2666C12.1976 31.7479 14.6538 31.6933 16.2024 30.1447Z" fill="white"/>
</svg>