<svg width="43" height="40" viewBox="0 0 43 40" fill="none" xmlns="http://www.w3.org/2000/svg">
<path d="M20.7967 39.1954C30.9854 39.1954 39.2449 30.9358 39.2449 20.7471C39.2449 10.5584 30.9854 2.29883 20.7967 2.29883C10.608 2.29883 2.34839 10.5584 2.34839 20.7471C2.34839 30.9358 10.608 39.1954 20.7967 39.1954Z" fill="#C0D5EE"/>
<path d="M6.13013 28.5716V40.0002H26.1301V28.5716L16.1301 12.0835L6.13013 28.5716Z" fill="#8AA4D2"/>
<path d="M6.13012 28.5714H5.17773L16.1301 10.5356L27.2611 28.5714H26.1301L16.1301 12.0833L6.13012 28.5714Z" fill="#486AAF"/>
<path d="M16.1301 10.5356H31.3087L42.7968 28.5714H27.2611L16.1301 10.5356Z" fill="#2951A3"/>
<path d="M41.0706 28.5713H26.1301V39.9999H41.0706V28.5713Z" fill="#5F7FBC"/>
<path d="M19.761 30.4761C18.2134 30.4761 17.0229 31.7261 17.0229 33.2142V39.9404H22.4991V33.2737C22.4991 31.7261 21.2491 30.4761 19.761 30.4761Z" fill="#CA7439"/>
<path d="M20.3563 30.4761C18.8086 30.4761 17.6182 31.7261 17.6182 33.2142V39.9404H23.0944V33.2737C23.0944 31.7261 21.8444 30.4761 20.3563 30.4761Z" fill="#F8D179"/>
<path d="M14.0467 32.2617H9.1062V37.2022H14.0467V32.2617Z" fill="#C5D4EC"/>
<path d="M17.4991 26.0119H14.761V20.7143C14.761 19.9405 15.3562 19.3452 16.13 19.3452C16.9038 19.3452 17.4991 19.9405 17.4991 20.7143V26.0119Z" fill="#C5D4EC"/>
<path d="M39.0467 34.1069H31.9038V36.6069H39.0467V34.1069Z" fill="#8AA4D2"/>
<path d="M12.4444 26.4146L10.9404 24.9106L7.65901 28.1921L9.16299 29.6961L12.4444 26.4146Z" fill="#264A93"/>
<path d="M0.855721 36.5626C-0.0144069 35.6925 -0.0144069 34.4356 0.855721 33.5655L5.68976 28.7315C6.46321 27.958 7.81675 27.958 8.68687 28.7315C9.46032 29.5049 9.46032 30.8584 8.68687 31.7286L3.85283 36.5626C2.9827 37.336 1.62917 37.336 0.855721 36.5626Z" fill="#3A6ACD"/>
<path d="M23.9858 25.5931C27.195 22.3838 27.2562 17.2418 24.1225 14.1081C20.9888 10.9743 15.8468 11.0356 12.6375 14.2448C9.42827 17.4541 9.36705 22.5961 12.5008 25.7298C15.6345 28.8635 20.7765 28.8023 23.9858 25.5931Z" fill="#CA7439"/>
<path d="M23.0192 25.5931C26.2285 22.3838 26.2897 17.2418 23.1559 14.1081C20.0222 10.9743 14.8802 11.0356 11.671 14.2448C8.46172 17.4541 8.4005 22.5961 11.5342 25.7298C14.668 28.8635 19.81 28.8023 23.0192 25.5931Z" fill="#F8D179"/>
<path d="M21.8569 24.4309C24.4621 21.8257 24.5539 17.6938 22.062 15.2019C19.5701 12.71 15.4382 12.8018 12.833 15.407C10.2279 18.0121 10.136 22.1441 12.6279 24.636C15.1198 27.1279 19.2518 27.036 21.8569 24.4309Z" fill="white"/>
</svg>