<svg width="39" height="39" viewBox="0 0 39 39" fill="none" xmlns="http://www.w3.org/2000/svg">
<path d="M19.6278 38.3856C30.2277 38.3856 38.8206 29.7927 38.8206 19.1928C38.8206 8.59292 30.2277 0 19.6278 0C9.02786 0 0.434937 8.59292 0.434937 19.1928C0.434937 29.7927 9.02786 38.3856 19.6278 38.3856Z" fill="#C4D4EC"/>
<g clip-path="url(#clip0_4056_314391)">
<path d="M26 37.4783L14 32.751V11.4783L26 16.2055V37.4783Z" fill="#2951A3"/>
<path d="M36 14.4783L26 16.4036L26 37.4783L36 35.4025L36 14.4783Z" fill="#3A6ACD"/>
<path d="M15 12.4783L5 14.6178L5 35.4783L15 33.3387L15 12.4783Z" fill="#3A6ACD"/>
<path d="M26 17.9783L34.5 16.4783V33.9783L26 35.9783" stroke="#8AA4D2"/>
<path d="M26 17.9783L34.5 16.4783V33.9783L26 35.9783" stroke="#8AA4D2"/>
<path d="M26 17.9783L15 13.9783" stroke="#5F7FBC"/>
<path d="M26 35.4783L15 31.4783" stroke="#5F7FBC"/>
<path d="M15 31.4783L6.5 33.4783V15.9783L14.5 13.9783" stroke="#8AA4D2"/>
</g>
<path d="M26.0001 10.827C26.0001 12.0263 25.7659 13.1333 25.2976 14.1481C25.2508 14.1942 25.2508 14.2404 25.2039 14.3326C24.6419 15.6241 20.8017 23.9729 17.664 23.9729C16.7273 23.9729 15.697 23.1888 14.6667 22.0817C15.4161 22.7275 16.1654 23.1426 16.8678 23.1426C19.9587 23.1426 23.799 14.7939 24.4078 13.5023C24.4546 13.4562 24.4546 13.364 24.5014 13.3178C24.9698 12.3031 25.2039 11.1961 25.2039 9.99678C25.2039 7.87499 24.4078 5.98384 23.0965 4.50781C24.8761 6.07609 26.0001 8.33625 26.0001 10.827Z" fill="#CA7439"/>
<path d="M25.2038 10.0429C25.2038 11.2422 24.9697 12.3492 24.5014 13.364C24.4545 13.4101 24.4545 13.4562 24.4077 13.5485C23.8457 14.84 20.0055 23.1888 16.8678 23.1888C16.1653 23.1888 15.416 22.7736 14.6667 22.1279C12.6529 19.9138 10.7328 16.3621 9.98347 14.8861V14.84C9.84298 14.5632 9.74931 14.3787 9.70248 14.2865V14.2403C9.70248 14.2403 9.70248 14.2403 9.70248 14.1942C9.23416 13.1795 9 12.0724 9 10.8732C9 6.26059 12.7934 2.47827 17.5234 2.47827C19.6777 2.47827 21.6446 3.26241 23.0964 4.55393C24.4077 5.98383 25.2038 7.92112 25.2038 10.0429Z" fill="#F8D179"/>
<path d="M17.6171 16.9619C20.9795 16.9619 23.7052 14.2773 23.7052 10.9656C23.7052 7.6539 20.9795 4.96924 17.6171 4.96924C14.2547 4.96924 11.5289 7.6539 11.5289 10.9656C11.5289 14.2773 14.2547 16.9619 17.6171 16.9619Z" fill="#E2AA5B"/>
<path d="M22.7685 10.8733C22.7685 13.687 20.4269 15.9932 17.5702 15.9932C15.9779 15.9932 14.5261 15.2552 13.5895 14.1482C14.4793 14.794 15.5564 15.2091 16.7272 15.2091C19.584 15.2091 21.9256 12.9028 21.9256 10.0891C21.9256 8.84374 21.4572 7.73672 20.7548 6.81421C21.9724 7.73672 22.7685 9.21275 22.7685 10.8733Z" fill="#CA7439"/>
<path d="M21.9256 10.0426C21.9256 12.8563 19.584 15.1626 16.7272 15.1626C15.5564 15.1626 14.4325 14.7475 13.5895 14.1017C12.8402 13.2253 12.4187 12.0722 12.4187 10.8729C12.4187 8.05922 14.7603 5.75293 17.617 5.75293C18.7878 5.75293 19.9118 6.16806 20.7548 6.81382C21.5041 7.69021 21.9256 8.84336 21.9256 10.0426Z" fill="#F8D179"/>
<defs>
<clipPath id="clip0_4056_314391">
<rect width="35" height="35" fill="white" transform="translate(3 2.47827)"/>
</clipPath>
</defs>
</svg>