<svg width="41" height="40" viewBox="0 0 41 40" fill="none" xmlns="http://www.w3.org/2000/svg">
<g clip-path="url(#clip0_4056_324085)">
<path d="M21.1276 38.8502C31.7275 38.8502 40.3205 30.1533 40.3205 19.4251C40.3205 8.69692 31.7275 0 21.1276 0C10.5277 0 1.93481 8.69692 1.93481 19.4251C1.93481 30.1533 10.5277 38.8502 21.1276 38.8502Z" fill="#C4D4EC"/>
<path d="M11.1427 30.8622C9.88705 29.4099 9.22935 27.7155 8.99019 25.8395C8.33249 20.4537 9.10977 15.2495 11.621 10.4084C12.3385 9.01653 13.3549 7.80625 14.7899 7.14059C16.3444 6.95904 17.1815 7.92727 17.7196 9.19808C18.9752 11.9817 18.9752 14.8864 18.7361 17.7911C17.6001 17.5491 16.5238 17.307 15.3878 17.0649C14.0724 16.7624 12.6374 17.7306 12.3983 19.0014C12.2189 20.1512 13.1755 21.422 14.4909 21.6035C15.6867 21.7851 16.8826 21.8456 18.0784 21.9666C17.6001 24.4477 16.7032 26.8683 15.2084 28.9258C14.3116 30.4386 13.056 31.4674 11.1427 30.8622Z" fill="#FFCF6A"/>
<path d="M21.0679 11.3765C22.4431 11.7396 23.5193 12.6473 24.7152 13.2524C26.0306 13.9181 27.346 14.7048 28.6614 15.4309C28.3026 15.6125 28.482 15.9756 28.482 16.2781C28.6016 20.1511 28.0634 23.9029 26.6883 27.5338C26.6285 27.7153 26.2697 28.0179 26.6883 28.26C23.8183 28.6836 21.0081 29.2282 18.1382 29.4703C19.334 27.4128 20.2309 25.2343 20.769 22.9347C21.6658 19.1223 21.7854 15.2494 21.0679 11.3765Z" fill="#5F7FBC"/>
<path d="M28.3625 29.5916C28.6614 29.047 28.781 28.5024 28.781 27.8972C29.2593 27.8367 29.7377 27.7762 30.216 27.7157C31.4118 27.5947 32.6674 27.2316 33.8034 27.3526C34.8797 27.4736 34.9394 26.8685 35.059 26.2028C35.1786 25.5372 35.2982 24.8715 35.4178 24.2059C35.6569 22.572 35.9559 20.9381 36.1951 19.3042C36.9125 19.4252 37.5702 19.4857 38.2877 19.6068C39.7227 19.9093 40.5598 21.1801 40.3804 22.6325C40.2608 23.4192 40.1412 24.2059 40.0217 25.0531C39.7825 26.687 38.5867 27.5947 36.9723 27.4736C36.4342 27.4131 35.9559 27.3526 35.4178 27.2316C34.8797 27.1106 34.5807 27.4131 34.5209 27.8972C33.923 31.5886 32.787 35.0984 31.8901 38.7293C31.7705 39.3345 31.352 39.6975 30.8139 39.9396C29.917 40.3027 27.4656 39.637 26.8677 38.9109C26.509 38.4267 26.3894 37.8821 26.509 37.2165C26.6883 36.4298 26.8079 35.7036 26.9873 34.9169C27.5852 33.162 28.0635 31.4071 28.3625 29.5916Z" fill="#3A6ACD"/>
<path d="M36.2548 19.2435C36.0156 20.8774 35.7167 22.5113 35.4775 24.1452C35.3579 24.8108 35.2981 25.4765 35.1187 26.1422C34.9992 26.8078 34.9394 27.413 33.8631 27.2919C32.6673 27.1709 31.4715 27.534 30.2757 27.655C29.7974 27.7155 29.319 27.7761 28.8407 27.8366C28.7809 27.8366 28.7211 27.8366 28.6613 27.8366C28.5418 27.7761 28.482 27.8366 28.4222 27.8971C27.8841 28.0181 27.2862 28.0786 26.748 28.1997C26.3893 27.9576 26.6883 27.655 26.748 27.4735C28.1232 23.8426 28.6613 20.0907 28.5418 16.2178C28.5418 15.9152 28.3624 15.6127 28.7211 15.3706C31.2323 16.7019 33.7436 17.9727 36.2548 19.2435Z" fill="#2951A3"/>
<path d="M21.0678 11.3766C21.7853 15.2495 21.6657 19.1224 20.7689 22.9348C20.2308 25.2343 19.3339 27.4129 18.1381 29.4704C17.5402 30.1965 16.9423 31.0437 16.165 31.6489C14.3115 33.0407 12.458 32.7381 11.1426 30.8017C13.0559 31.4068 14.3115 30.4386 15.3279 28.9862C16.8227 26.8682 17.6598 24.5082 18.1979 22.0271C18.6164 20.6353 18.7958 19.1829 18.8556 17.7306C19.0947 14.7654 19.0947 11.8607 17.8391 9.13752C17.2412 7.86672 16.464 6.89849 14.9094 7.08004C16.5237 5.93026 18.1979 6.17232 19.5133 7.80621C20.2906 8.89547 20.5895 10.1663 21.0678 11.3766Z" fill="#2951A3"/>
<path d="M28.3624 29.5913C28.0635 31.4067 27.5851 33.1617 27.1068 34.9166C26.3893 34.735 25.612 34.5535 24.8945 34.3719C24.476 34.2509 24.1173 34.1299 24.0575 33.6458C23.9977 33.1617 24.1771 32.9196 24.5358 32.617C25.7914 31.6488 27.047 30.6201 28.3624 29.5913Z" fill="#E89A26"/>
<path d="M1.03804 23.2375C0.798877 23.298 0.559714 23.1769 0.499923 22.8139C0.440132 22.3903 0.739086 22.3903 0.978249 22.3297C2.05448 22.2087 3.19051 22.0877 4.26674 21.9667C4.56569 21.9061 4.80486 21.9667 4.86465 22.3903C4.92444 22.7533 4.74507 22.8744 4.44611 22.9349C3.31009 22.9349 2.23385 23.0559 1.03804 23.2375Z" fill="#5F7FBC"/>
<path d="M4.86477 4.59912C5.04414 4.72015 5.16372 4.84118 5.2833 4.96221C6.12037 5.74889 6.89765 6.5961 7.73472 7.38278C7.97389 7.62484 8.09347 7.80638 7.79451 8.04844C7.55535 8.2905 7.37598 8.35101 7.13682 8.04844C6.29975 7.20124 5.46267 6.35404 4.6854 5.50684C4.44623 5.38581 4.20707 5.26478 4.44623 5.02272C4.56581 4.90169 4.74519 4.78066 4.86477 4.59912Z" fill="#5F7FBC"/>
<path d="M6.29969 30.1969C6.35949 30.4389 6.12032 30.4995 6.00074 30.6205C5.04409 31.2861 4.08744 31.8913 3.19058 32.5569C2.89162 32.799 2.71225 32.799 2.47309 32.4359C2.23393 32.0728 2.47309 31.9518 2.71225 31.7703C3.6689 31.1046 4.62555 30.4995 5.52242 29.8338C6.00074 29.4707 6.12032 29.8943 6.29969 30.1969Z" fill="#5F7FBC"/>
<path d="M5.04392 15.1891C4.98413 15.4917 4.92434 15.7943 4.44601 15.6127C3.36978 15.2496 2.23375 14.8865 1.15752 14.5235C0.858568 14.4024 0.738987 14.2814 0.858568 13.9788C0.97815 13.6763 1.09773 13.5552 1.39668 13.6763C2.47292 14.0393 3.60894 14.4024 4.74497 14.7655C4.92434 14.7655 5.10371 14.8865 5.04392 15.1891Z" fill="#5F7FBC"/>
<path d="M28.3027 27.9577C28.3625 27.8367 28.4821 27.8367 28.5419 27.8972C28.4821 27.9577 28.4223 27.9577 28.3027 27.9577Z" fill="#2F648B"/>
<path d="M18.796 17.7309C18.7362 19.1832 18.5568 20.5751 18.1383 22.0274C16.9424 21.9064 15.7466 21.8459 14.5508 21.6643C13.2354 21.4828 12.219 20.212 12.4581 19.0622C12.6973 17.7309 14.1323 16.8232 15.4477 17.1258C16.5837 17.3073 17.7197 17.5494 18.796 17.7309Z" fill="#3C6BB4"/>
</g>
<defs>
<clipPath id="clip0_4056_324085">
<rect width="40" height="40" fill="white" transform="translate(0.5)"/>
</clipPath>
</defs>
</svg>