<svg width="40" height="40" viewBox="0 0 40 40" fill="none" xmlns="http://www.w3.org/2000/svg">
<path d="M20.5 39.5833C31.0526 39.5833 39.6071 31.0288 39.6071 20.4762C39.6071 9.9236 31.0526 1.36904 20.5 1.36904C9.94738 1.36904 1.39282 9.9236 1.39282 20.4762C1.39282 31.0288 9.94738 39.5833 20.5 39.5833Z" fill="#C4D4EC"/>
<path d="M16.3195 9.62499C9.90607 9.62499 5.28183 15.1477 8.2271 23.125" stroke="white" stroke-width="1.125"/>
<path d="M2.72424 30.0886V40H20.0692V30.0886L11.3967 15.7893L2.72424 30.0886Z" fill="#8AA4D2"/>
<path d="M2.72427 30.0886H1.89832L11.3967 14.4472L21.05 30.0886H20.0692L11.3967 15.7893L2.72427 30.0886Z" fill="#486AAF"/>
<path d="M11.3967 14.4472H24.5603L34.5233 30.0886H21.05L11.3967 14.4472Z" fill="#2951A3"/>
<path d="M33.0262 30.0886H20.0691V40H33.0262V30.0886Z" fill="#5F7FBC"/>
<path d="M14.5456 31.7405C13.2035 31.7405 12.171 32.8246 12.171 34.1151V39.9484H16.9202V34.1667C16.9202 32.8246 15.8362 31.7405 14.5456 31.7405Z" fill="#CA7439"/>
<path d="M15.0619 31.7405C13.7197 31.7405 12.6873 32.8246 12.6873 34.1151V39.9484H17.4365V34.1667C17.4365 32.8246 16.3524 31.7405 15.0619 31.7405Z" fill="#F8D179"/>
<path d="M9.59004 33.2892H5.30542V37.5738H9.59004V33.2892Z" fill="#C5D4EC"/>
<path d="M12.584 27.8688H10.2094V23.2745C10.2094 22.6034 10.7256 22.0872 11.3967 22.0872C12.0677 22.0872 12.584 22.6034 12.584 23.2745V27.8688V27.8688Z" fill="#C5D4EC"/>
<path d="M31.2712 34.8894H25.0765V37.0575H31.2712V34.8894Z" fill="#8AA4D2"/>
<path d="M29.9524 26H25.4286V27.1905H29.9524V26Z" fill="#486AAF"/>
<path d="M28.5238 27.7857H24V28.9762H28.5238V27.7857Z" fill="#486AAF"/>
<path d="M19.2294 12.9937C18.9594 13.2637 18.5933 13.4153 18.2116 13.4153C17.8298 13.4153 17.4637 13.2637 17.1938 12.9937C16.9238 12.7238 16.7722 12.3577 16.7722 11.976C16.7722 11.5942 16.9238 11.2281 17.1938 10.9582C17.4637 10.6882 17.8298 10.5366 18.2116 10.5366C18.5933 10.5366 18.9594 10.6882 19.2294 10.9582C19.4993 11.2281 19.6509 11.5942 19.6509 11.976C19.6509 12.3577 19.4993 12.7238 19.2294 12.9937ZM36.8932 5.35385L20.9189 5.30598C20.4304 5.30598 19.9418 5.49597 19.5686 5.86916L14.8189 10.6189C14.0657 11.3721 14.0657 12.5798 14.8189 13.333L19.5686 18.0827C19.9418 18.4559 20.4304 18.6459 20.9257 18.6391L36.8932 18.6938C37.3885 18.687 37.8838 18.5038 38.257 18.1306C38.6302 17.7574 38.8134 17.2621 38.8134 16.7736V7.2741C38.8202 6.77877 38.6302 6.29023 38.257 5.91703C37.877 5.53705 37.3817 5.35385 36.8932 5.35385Z" fill="#2E6C7D"/>
<path d="M18.1237 11.8494C17.8537 12.1194 17.4876 12.271 17.1059 12.271C16.7241 12.271 16.358 12.1194 16.0881 11.8494C15.8181 11.5795 15.6665 11.2134 15.6665 10.8316C15.6665 10.4499 15.8181 10.0838 16.0881 9.81382C16.358 9.54389 16.7241 9.39224 17.1059 9.39224C17.4876 9.39224 17.8537 9.54389 18.1237 9.81382C18.3936 10.0838 18.5452 10.4499 18.5452 10.8316C18.5452 11.2134 18.3936 11.5795 18.1237 11.8494ZM35.8831 3.99999L19.8132 4.16165C19.3247 4.16165 18.8361 4.35164 18.4629 4.72483L13.7132 9.47456C12.96 10.2277 12.96 11.4355 13.7132 12.1887L18.4629 16.9384C18.8361 17.3116 19.3247 17.5016 19.82 17.4948L35.8831 17.3399C36.3784 17.3331 36.8737 17.1499 37.2469 16.7767C37.6201 16.4036 37.8033 15.9082 37.8033 15.4197V5.92023C37.8101 5.42491 37.6201 4.93636 37.2469 4.56317C36.867 4.18319 36.3716 3.99999 35.8831 3.99999Z" fill="#86C7C3"/>
<path d="M33.9686 11.9925L33.9821 7.56489L34.9946 7.56797L34.9816 11.8429C34.9809 12.0572 35.0126 12.2046 35.0767 12.2851C35.1461 12.3657 35.2531 12.4062 35.3977 12.4066L35.5504 12.3991L35.5477 13.291C35.4459 13.3068 35.3387 13.3145 35.2262 13.3141C35.0602 13.3136 34.9129 13.2998 34.7844 13.2726C34.6559 13.2401 34.5248 13.1834 34.3912 13.1027C34.2575 13.0166 34.1534 12.8796 34.079 12.6919C34.0046 12.5042 33.9678 12.271 33.9686 11.9925Z" fill="white"/>
<path d="M29.3867 12.075C29.3873 11.8661 29.4307 11.6814 29.5169 11.5209C29.6031 11.3605 29.7214 11.2323 29.8716 11.1363C30.0273 11.0403 30.1856 10.9605 30.3465 10.8967C30.5127 10.8329 30.695 10.7879 30.8933 10.7617C31.097 10.7302 31.2658 10.712 31.3997 10.707C31.5337 10.6967 31.673 10.6918 31.8176 10.6922L31.9542 10.6926L31.9544 10.6364C31.9559 10.1542 31.6941 9.91238 31.1691 9.91078C30.9977 9.91026 30.8181 9.94453 30.6304 10.0136C30.4427 10.0773 30.2979 10.1412 30.1959 10.2051L30.0429 10.3011L29.6594 9.56869C29.7078 9.53134 29.7749 9.48601 29.8608 9.4327C29.952 9.37405 30.137 9.29961 30.4159 9.20939C30.6947 9.11381 30.9788 9.06646 31.2681 9.06734C31.8092 9.06899 32.2266 9.21222 32.5203 9.49704C32.8195 9.78187 32.9683 10.1841 32.9667 10.7037L32.9589 13.2671L32.0187 13.2642L32.0198 12.9267L32.0367 12.6375L32.0206 12.6374C32.026 12.6375 32.0152 12.6642 31.9882 12.7177C31.9613 12.7658 31.9156 12.8246 31.8511 12.8941C31.7866 12.9635 31.7087 13.0329 31.6174 13.1023C31.5262 13.1717 31.4054 13.2302 31.2553 13.278C31.1051 13.3311 30.9443 13.3574 30.7729 13.3569C30.3872 13.3557 30.0581 13.2395 29.7856 13.0083C29.5184 12.7772 29.3855 12.466 29.3867 12.075ZM30.4154 12.0299C30.4149 12.1745 30.4681 12.3006 30.5749 12.4081C30.6817 12.5102 30.8343 12.5615 31.0325 12.5621C31.2896 12.5629 31.5069 12.4511 31.6844 12.2266C31.8672 11.9968 31.959 11.7507 31.9598 11.4882L31.9601 11.3917L31.7833 11.3912C30.8727 11.3884 30.4167 11.6013 30.4154 12.0299Z" fill="white"/>
<path d="M24.7801 11.7797L24.7881 9.14406L25.8086 9.14717L25.8013 11.5739C25.8004 11.8471 25.8453 12.0562 25.936 12.2011C26.032 12.3407 26.1978 12.4108 26.4335 12.4115C26.7871 12.4126 27.0661 12.2795 27.2705 12.0123C27.4802 11.7451 27.5856 11.4186 27.5868 11.0329L27.5925 9.15259L28.613 9.15569L28.6006 13.2538L27.6203 13.2508L27.6217 12.7848L27.6386 12.4956L27.6225 12.4955C27.5094 12.7255 27.3239 12.9258 27.0663 13.0965C26.814 13.2618 26.5244 13.3439 26.1977 13.3429C25.2495 13.3401 24.777 12.819 24.7801 11.7797Z" fill="white"/>
<path d="M20.073 11.5404L20.074 11.211L21.1025 11.2141L21.1017 11.4793C21.1008 11.79 21.1724 12.0179 21.3166 12.1629C21.4608 12.308 21.64 12.3809 21.8543 12.3815C22.0686 12.3822 22.2429 12.3131 22.3773 12.1742C22.517 12.0353 22.5873 11.8213 22.5881 11.532L22.5976 8.42224L21.1271 8.41776L21.1298 7.52582L23.6369 7.53344L23.6247 11.5512C23.6229 12.1351 23.4448 12.5792 23.0903 12.8835C22.7411 13.1824 22.3228 13.3312 21.8354 13.3297C21.3532 13.3282 20.9385 13.1743 20.5912 12.8679C20.244 12.5615 20.0712 12.119 20.073 11.5404Z" fill="white"/>
</svg>