<svg width="40" height="40" viewBox="0 0 40 40" fill="none" xmlns="http://www.w3.org/2000/svg">
<path d="M17.4091 37C26.5218 37 33.9091 29.6127 33.9091 20.5C33.9091 11.3873 26.5218 4 17.4091 4C8.29636 4 0.909058 11.3873 0.909058 20.5C0.909058 29.6127 8.29636 37 17.4091 37Z" fill="#88C1E0"/>
<path d="M26.9091 15H7.90906V40H26.9091V15Z" fill="#3A6ACD"/>
<path d="M35.9091 15H26.9091V40H35.9091V15Z" fill="#2951A3"/>
<path d="M35.9091 13H26.9091V15H35.9091V13Z" fill="#486AAF"/>
<path d="M26.9091 13H6.90906V15H26.9091V13Z" fill="#8BA4D2"/>
<path d="M25.4091 16H18.4091V22H25.4091V16Z" fill="#C5D4EC"/>
<path d="M16.4091 16H9.40906V22H16.4091V16Z" fill="#C5D4EC"/>
<path d="M35.9091 37H33.9091V38H35.9091V37Z" fill="#3A6ACD"/>
<path d="M19.9091 34H15.9091V40H19.9091V34Z" fill="#8BA4D2"/>
<path d="M26.9091 31H10.9091V33H26.9091V31Z" fill="#C5D4EC"/>
<path d="M26.9091 33H24.9091C24.9091 31.9032 25.6868 31 26.6313 31H26.8535V33H26.9091Z" fill="#8BA4D2"/>
<path d="M31.304 40C31.304 40 29.3116 37.7408 30.0891 36.8548C30.8666 35.9688 31.6441 36.8548 31.6441 36.8548C31.6441 36.8548 30.9152 32.5135 32.3245 33.0451C33.7337 33.5767 33.2964 36.5004 33.2964 36.5004C33.2964 36.5004 34.171 34.0197 34.8514 35.2157C35.5317 36.4118 34.2196 37.8294 34.2196 37.8294C34.2196 37.8294 36.3578 36.3232 35.8233 37.8294C35.2887 39.3355 34.0253 40 34.0253 40H31.304Z" fill="#2E6C7D"/>
<path d="M10.9091 33H6.90906C6.90906 31.9032 7.46352 31 8.13678 31H10.8695V33H10.9091Z" fill="#C5D4EC"/>
<path d="M31.304 40C31.304 40 29.3116 37.7408 30.0891 36.8548C30.8666 35.9688 31.6441 36.8548 31.6441 36.8548C31.6441 36.8548 30.9152 32.5135 32.3245 33.0451C33.7337 33.5767 33.2963 36.5004 33.2963 36.5004C33.2963 36.5004 34.1711 34.0197 34.8514 35.2157C35.5317 36.4118 34.2196 37.8294 34.2196 37.8294C34.2196 37.8294 36.3578 36.3232 35.8233 37.8294C35.2887 39.3355 34.0253 40 34.0253 40H31.304Z" fill="#86C7C3"/>
<path d="M29.9091 10H22.9091V13H29.9091V10Z" fill="#486AAF"/>
<path d="M26.909 12C27.4613 12 27.9091 11.7761 27.9091 11.5C27.9091 11.2239 27.4613 11 26.909 11C26.3568 11 25.9091 11.2239 25.9091 11.5C25.9091 11.7761 26.3568 12 26.909 12Z" fill="#3A6ACD"/>
<path d="M28.9091 12C29.4613 12 29.9091 11.7761 29.9091 11.5C29.9091 11.2239 29.4613 11 28.9091 11C28.3568 11 27.9091 11.2239 27.9091 11.5C27.9091 11.7761 28.3568 12 28.9091 12Z" fill="#3A6ACD"/>
<path d="M24.9091 10H21.9091V13H24.9091V10Z" fill="#8BA4D2"/>
<path d="M32.9091 18H28.9091V19H32.9091V18Z" fill="#486AAF"/>
<path d="M31.9091 19H27.9091V20H31.9091V19Z" fill="#486AAF"/>
<path d="M25.2933 23.0659H9.49146V29.764H25.2933V23.0659Z" fill="#CA7439"/>
<path d="M24.8688 23.4434H9.86877V29.3868H24.8688V23.4434Z" fill="#F8D179"/>
<path d="M10.5292 28.2077V24.4341H11.8971C12.2273 24.4341 12.5103 24.5284 12.7462 24.6699C12.982 24.8586 13.0764 25.0945 13.0764 25.3775C13.0764 25.5662 13.0292 25.7077 12.9348 25.8492C12.8405 25.9907 12.7462 26.085 12.6047 26.1794C12.7933 26.2265 12.9348 26.368 13.0764 26.5096C13.1707 26.6982 13.2179 26.8397 13.2179 27.0756C13.2179 27.4529 13.0764 27.6888 12.8405 27.8775C12.6047 28.0662 12.2745 28.1605 11.8971 28.1605H10.5292V28.2077ZM11.1896 25.9435H11.8499C11.9914 25.9435 12.1329 25.8963 12.1801 25.802C12.2745 25.7077 12.3216 25.6133 12.3216 25.4718C12.3216 25.3303 12.2745 25.236 12.1801 25.1416C12.0858 25.0473 11.9914 25.0001 11.8028 25.0001H11.1424V25.9435H11.1896ZM11.1896 27.5945H11.9443C12.1329 27.5945 12.2273 27.5473 12.3688 27.4529C12.4631 27.3586 12.5103 27.2171 12.5103 27.0756C12.5103 26.9341 12.4631 26.7926 12.3688 26.6982C12.2745 26.6039 12.1329 26.5567 11.9443 26.5567H11.1896V27.5945Z" fill="#3A6ACD"/>
<path d="M16.1424 28.2077L15.8122 27.2171H14.4915L14.1613 28.2077H13.4537L14.7745 24.4341H15.482L16.8028 28.2077H16.1424ZM15.1519 25.0473C15.1047 25.2831 15.0103 25.4718 14.9632 25.6133L14.633 26.6511H15.6235L15.2934 25.6133L15.1519 25.0473Z" fill="#3A6ACD"/>
<path d="M17.3217 28.2077V24.4341H18.0292L19.4443 26.6039C19.4915 26.6511 19.5386 26.7454 19.5858 26.8397C19.633 26.9341 19.6801 27.0284 19.7273 27.0756L19.7745 27.1699C19.7273 26.9341 19.7273 26.7454 19.7273 26.6039V24.4341H20.3877V28.2077H19.7273L18.2651 26.0379C18.2179 25.9907 18.1707 25.8963 18.1235 25.802C18.0764 25.7077 18.0292 25.6133 17.982 25.5662L17.9349 25.4718C17.982 25.7077 17.982 25.8963 17.982 26.0379V28.2077H17.3217Z" fill="#3A6ACD"/>
<path d="M21.3783 28.2077V24.4341H22.0858V25.9907H22.5575L23.4538 24.4341H24.2085L23.1236 26.2265L24.2557 28.2077H23.5009L22.5575 26.5567H22.0858V28.2077H21.3783Z" fill="#3A6ACD"/>
<path d="M26.5908 25C33.4944 25 39.0908 19.4036 39.0908 12.5C39.0908 5.59644 33.4944 0 26.5908 0C19.6873 0 14.0908 5.59644 14.0908 12.5C14.0908 19.4036 19.6873 25 26.5908 25Z" fill="#E89A26"/>
<path d="M24.3181 25C31.2217 25 36.8181 19.4036 36.8181 12.5C36.8181 5.59644 31.2217 0 24.3181 0C17.4146 0 11.8181 5.59644 11.8181 12.5C11.8181 19.4036 17.4146 25 24.3181 25Z" fill="#F8D179"/>
<path d="M22.4242 10.5965L22.4242 6.82796L28.1634 6.82796L28.1634 3.78799L33.7878 8.71223L28.1634 13.6365L28.1634 10.5965L22.4242 10.5965Z" fill="white"/>
<path d="M26.212 12.8884L26.212 16.6569L20.4728 16.6569L20.4728 19.6969L14.8484 14.7726L20.4728 9.84839L20.4728 12.8884L26.212 12.8884Z" fill="white"/>
</svg>