<svg width="41" height="40" viewBox="0 0 41 40" fill="none" xmlns="http://www.w3.org/2000/svg">
<path d="M20.8893 38.4431C31.5051 38.4431 40.1108 29.8373 40.1108 19.2216C40.1108 8.60578 31.5051 0 20.8893 0C10.2735 0 1.66772 8.60578 1.66772 19.2216C1.66772 29.8373 10.2735 38.4431 20.8893 38.4431Z" fill="#88C1E0"/>
<path d="M35.8591 39.9399H16.1585C13.943 39.9399 12.0867 38.1435 12.0867 35.868V9.40096C12.0867 7.18539 13.8831 5.3291 16.1585 5.3291H35.8591C38.0747 5.3291 39.931 7.12551 39.931 9.40096V35.868C39.931 38.1435 38.0747 39.9399 35.8591 39.9399Z" fill="#2951A3"/>
<path d="M33.3442 39.9399H13.6436C11.4281 39.9399 9.57178 38.1435 9.57178 35.868V9.40096C9.57178 7.18539 11.3682 5.3291 13.6436 5.3291H33.3442C35.5598 5.3291 37.4161 7.12551 37.4161 9.40096V35.868C37.4161 38.1435 35.5598 39.9399 33.3442 39.9399Z" fill="#3A6ACD"/>
<path d="M16.0988 17.3053H14.4221C13.0449 17.3053 11.967 16.2275 11.967 14.8502V12.7544C11.967 11.3772 13.0449 10.2993 14.4221 10.2993H16.0988C14.7215 10.2993 13.6437 11.3772 13.6437 12.7544V14.8502C13.6437 16.2275 14.7215 17.3053 16.0988 17.3053Z" fill="#8BA4D2"/>
<path d="M35.2606 12.7544V14.8502C35.2606 16.2275 34.1827 17.3053 32.8055 17.3053H16.0989C14.7216 17.3053 13.6438 16.2275 13.6438 14.8502V12.7544C13.6438 11.3772 14.7216 10.2993 16.0989 10.2993H32.8055C34.1827 10.2993 35.2606 11.437 35.2606 12.7544Z" fill="#C5D4EC"/>
<path d="M35.2604 27.2454V35.5089C35.2604 36.6466 34.3622 37.5448 33.2244 37.5448H32.2664C33.4041 37.5448 34.3023 36.6466 34.3023 35.5089V27.2454C34.3023 26.8263 34.0029 26.5269 33.5837 26.5269H34.5418C34.961 26.5269 35.2604 26.8263 35.2604 27.2454Z" fill="#CA7439"/>
<path d="M34.3024 27.2454V35.5089C34.3024 36.6466 33.4042 37.5448 32.2665 37.5448H31.3084C30.8893 37.5448 30.5898 37.2454 30.5898 36.8263V27.2454C30.5898 26.8263 30.8893 26.5269 31.3084 26.5269H33.5839C34.003 26.5269 34.3024 26.8263 34.3024 27.2454Z" fill="#F8D179"/>
<path d="M34.3022 20.2993H31.4879C30.9489 20.2993 30.5298 20.7185 30.5298 21.2574V24.0718C30.5298 24.6107 30.9489 25.0299 31.4879 25.0299H34.3022C34.8412 25.0299 35.2603 24.6107 35.2603 24.0718V21.2574C35.2603 20.7185 34.8412 20.2993 34.3022 20.2993Z" fill="#86C7C3"/>
<path d="M28.0747 20.2993H25.2603C24.7214 20.2993 24.3022 20.7185 24.3022 21.2574V24.0718C24.3022 24.6107 24.7214 25.0299 25.2603 25.0299H28.0747C28.6136 25.0299 29.0328 24.6107 29.0328 24.0718V21.2574C29.0328 20.7185 28.6136 20.2993 28.0747 20.2993Z" fill="#8BA4D2"/>
<path d="M21.967 20.2993H19.1527C18.6137 20.2993 18.1946 20.7185 18.1946 21.2574V24.0718C18.1946 24.6107 18.6137 25.0299 19.1527 25.0299H21.967C22.5059 25.0299 22.9251 24.6107 22.9251 24.0718V21.2574C22.8652 20.7185 22.4461 20.2993 21.967 20.2993Z" fill="#8BA4D2"/>
<path d="M16.7575 21.2574V24.0718C16.7575 24.6107 16.3383 25.0299 15.7994 25.0299H14.8413C15.3802 25.0299 15.7994 24.6107 15.7994 24.0718V21.2574C15.7994 20.7185 15.3802 20.2993 14.8413 20.2993H15.7994C16.3383 20.2993 16.7575 20.7185 16.7575 21.2574Z" fill="#486AAF"/>
<path d="M22.8651 21.2574V24.0718C22.8651 24.6107 22.446 25.0299 21.907 25.0299H20.949C21.4879 25.0299 21.907 24.6107 21.907 24.0718V21.2574C21.907 20.7185 21.4879 20.2993 20.949 20.2993H21.907C22.446 20.2993 22.8651 20.7185 22.8651 21.2574Z" fill="#486AAF"/>
<path d="M29.0329 21.2574V24.0718C29.0329 24.6107 28.6137 25.0299 28.0748 25.0299H27.1167C27.6556 25.0299 28.0748 24.6107 28.0748 24.0718V21.2574C28.0748 20.7185 27.6556 20.2993 27.1167 20.2993H28.0748C28.6137 20.2993 29.0329 20.7185 29.0329 21.2574Z" fill="#486AAF"/>
<path d="M35.2604 21.2574V24.0718C35.2604 24.6107 34.8412 25.0299 34.3023 25.0299H33.3442C33.8832 25.0299 34.3023 24.6107 34.3023 24.0718V21.2574C34.3023 20.7185 33.8832 20.2993 33.3442 20.2993H34.3023C34.8412 20.2993 35.2604 20.7185 35.2604 21.2574Z" fill="#486AAF"/>
<path d="M15.7993 21.2574V24.0718C15.7993 24.6107 15.3802 25.0299 14.8412 25.0299H12.9849C12.446 25.0299 12.0269 24.6107 12.0269 24.0718V21.2574C12.0269 20.7185 12.446 20.2993 12.9849 20.2993H14.8412C15.3802 20.2993 15.7993 20.7185 15.7993 21.2574Z" fill="#8BA4D2"/>
<path d="M28.0747 26.5269H25.2603C24.7214 26.5269 24.3022 26.946 24.3022 27.4849V30.2993C24.3022 30.8382 24.7214 31.2574 25.2603 31.2574H28.0747C28.6136 31.2574 29.0328 30.8382 29.0328 30.2993V27.4849C29.0328 26.946 28.6136 26.5269 28.0747 26.5269Z" fill="#8BA4D2"/>
<path d="M21.967 26.5269H19.1527C18.6137 26.5269 18.1946 26.946 18.1946 27.4849V30.2993C18.1946 30.8382 18.6137 31.2574 19.1527 31.2574H21.967C22.5059 31.2574 22.9251 30.8382 22.9251 30.2993V27.4849C22.8652 26.946 22.4461 26.5269 21.967 26.5269Z" fill="#8BA4D2"/>
<path d="M15.7993 26.5269H12.9849C12.446 26.5269 12.0269 26.946 12.0269 27.4849V30.2993C12.0269 30.8382 12.446 31.2574 12.9849 31.2574H15.7993C16.3382 31.2574 16.7574 30.8382 16.7574 30.2993V27.4849C16.7574 26.946 16.3382 26.5269 15.7993 26.5269Z" fill="#8BA4D2"/>
<path d="M28.0747 32.6943H25.2603C24.7214 32.6943 24.3022 33.1135 24.3022 33.6524V36.4668C24.3022 37.0057 24.7214 37.4249 25.2603 37.4249H28.0747C28.6136 37.4249 29.0328 37.0057 29.0328 36.4668V33.6524C29.0328 33.1135 28.6136 32.6943 28.0747 32.6943Z" fill="#8BA4D2"/>
<path d="M21.967 32.6943H19.1527C18.6137 32.6943 18.1946 33.1135 18.1946 33.6524V36.4668C18.1946 37.0057 18.6137 37.4249 19.1527 37.4249H21.967C22.5059 37.4249 22.9251 37.0057 22.9251 36.4668V33.6524C22.8652 33.1135 22.4461 32.6943 21.967 32.6943Z" fill="#8BA4D2"/>
<path d="M15.7993 32.6943H12.9849C12.446 32.6943 12.0269 33.1135 12.0269 33.6524V36.4668C12.0269 37.0057 12.446 37.4249 12.9849 37.4249H15.7993C16.3382 37.4249 16.7574 37.0057 16.7574 36.4668V33.6524C16.7574 33.1135 16.3382 32.6943 15.7993 32.6943Z" fill="#8BA4D2"/>
<path d="M16.7575 27.4249V30.2393C16.7575 30.7782 16.3383 31.1973 15.7994 31.1973H14.8413C15.3802 31.1973 15.7994 30.7782 15.7994 30.2393V27.4249C15.7994 26.886 15.3802 26.4668 14.8413 26.4668H15.7994C16.3383 26.5267 16.7575 26.9458 16.7575 27.4249Z" fill="#486AAF"/>
<path d="M22.8651 27.4249V30.2393C22.8651 30.7782 22.446 31.1973 21.907 31.1973H20.949C21.4879 31.1973 21.907 30.7782 21.907 30.2393V27.4249C21.907 26.886 21.4879 26.4668 20.949 26.4668H21.907C22.446 26.5267 22.8651 26.9458 22.8651 27.4249Z" fill="#486AAF"/>
<path d="M29.0329 27.4249V30.2393C29.0329 30.7782 28.6137 31.1973 28.0748 31.1973H27.1167C27.6556 31.1973 28.0748 30.7782 28.0748 30.2393V27.4249C28.0748 26.886 27.6556 26.4668 27.1167 26.4668H28.0748C28.6137 26.5267 29.0329 26.9458 29.0329 27.4249Z" fill="#486AAF"/>
<path d="M16.7575 33.6524V36.4668C16.7575 37.0057 16.3383 37.4249 15.7994 37.4249H14.8413C15.3802 37.4249 15.7994 37.0057 15.7994 36.4668V33.6524C15.7994 33.1135 15.3802 32.6943 14.8413 32.6943H15.7994C16.3383 32.6943 16.7575 33.1135 16.7575 33.6524Z" fill="#486AAF"/>
<path d="M22.8651 33.6524V36.4668C22.8651 37.0057 22.446 37.4249 21.907 37.4249H20.949C21.4879 37.4249 21.907 37.0057 21.907 36.4668V33.6524C21.907 33.1135 21.4879 32.6943 20.949 32.6943H21.907C22.446 32.6943 22.8651 33.1135 22.8651 33.6524Z" fill="#486AAF"/>
<path d="M29.0329 33.6524V36.4668C29.0329 37.0057 28.6137 37.4249 28.0748 37.4249H27.1167C27.6556 37.4249 28.0748 37.0057 28.0748 36.4668V33.6524C28.0748 33.1135 27.6556 32.6943 27.1167 32.6943H28.0748C28.6137 32.6943 29.0329 33.1135 29.0329 33.6524Z" fill="#486AAF"/>
<g opacity="0.6">
<path d="M27.0567 33.0538H25.919V39.94H3.58367V33.0538H2.98486L9.99085 22.0957H19.6915L27.0567 33.0538Z" fill="#2951A3"/>
</g>
<path d="M1.48804 32.6346V39.94H14.3024V32.6346L7.89522 22.0957L1.48804 32.6346Z" fill="#F8D179"/>
<path d="M1.48796 32.6345H0.88916L7.89515 21.0776L15.0209 32.6345H14.3023L7.89515 22.0956L1.48796 32.6345Z" fill="#C4D4EC"/>
<path d="M7.89502 21.0776H17.6555L24.9609 32.6345H15.0208L7.89502 21.0776Z" fill="#2951A3"/>
<path d="M23.8831 32.6348H14.3022V39.9402H23.8831V32.6348Z" fill="#E89A26"/>
<path d="M10.5897 33.8921H9.93102C9.15258 33.8921 8.4939 34.5508 8.4939 35.3292V39.9999H12.0268V35.3292C11.9669 34.4909 11.3681 33.8921 10.5897 33.8921Z" fill="#5F7FBC"/>
<path d="M10.9491 33.8921H10.2904C9.51195 33.8921 8.85327 34.5508 8.85327 35.3292V39.9999H12.3862V35.3292C12.3862 34.4909 11.7275 33.8921 10.9491 33.8921Z" fill="#8BA4D2"/>
<path d="M6.57771 35.0898H3.40405V38.2635H6.57771V35.0898Z" fill="#FBE4AE"/>
<path d="M8.79341 31.0176H7.05688V27.6643C7.05688 27.1853 7.47605 26.7661 7.95509 26.7661C8.43413 26.7661 8.85329 27.1853 8.85329 27.6643V31.0176H8.79341Z" fill="#FBE4AE"/>
</svg>